<svg width="1867" height="1871" viewBox="0 0 1867 1871" fill="none" xmlns="http://www.w3.org/2000/svg">
<path d="M1297.11 425.742C1024.91 248.915 668.265 269.398 424.455 482.495C295.559 595.153 201.997 759.2 240.934 994.419C310.537 1414.9 660.152 1426.58 866.823 1394.64C966.748 1379.29 1068.36 1377.98 1168.72 1390.74C1349.35 1413.53 1632.37 1387.67 1645.18 1006.18C1654.46 729.673 1478.42 543.526 1297.11 425.742Z" fill="#0F0E3E"/>
<path d="M988.476 876.271C989.503 875.349 991.084 875.434 992.006 876.462C992.929 877.489 992.844 879.07 991.816 879.992C990.789 880.914 989.208 880.829 988.286 879.802C987.363 878.774 987.448 877.194 988.476 876.271Z" fill="white"/>
<path d="M779.38 1182.25C780.407 1181.33 781.988 1181.41 782.91 1182.44C783.833 1183.47 783.748 1185.05 782.72 1185.97C781.693 1186.89 780.112 1186.81 779.19 1185.78C778.267 1184.75 778.352 1183.17 779.38 1182.25Z" fill="white"/>
<path d="M946.21 1213.9C947.238 1212.98 948.818 1213.06 949.741 1214.09C950.663 1215.12 950.578 1216.7 949.551 1217.62C948.523 1218.54 946.943 1218.46 946.02 1217.43C945.098 1216.4 945.183 1214.82 946.21 1213.9Z" fill="white"/>
<path d="M886.438 1403.29C887.465 1402.37 889.046 1402.45 889.968 1403.48C890.891 1404.51 890.806 1406.09 889.778 1407.01C888.751 1407.93 887.17 1407.85 886.248 1406.82C885.325 1405.79 885.411 1404.21 886.438 1403.29Z" fill="white"/>
<path d="M1070.46 1240.77C1072.1 1239.3 1074.63 1239.43 1076.1 1241.08C1077.58 1242.72 1077.44 1245.25 1075.8 1246.73C1074.16 1248.2 1071.63 1248.07 1070.15 1246.42C1068.68 1244.78 1068.81 1242.25 1070.46 1240.77Z" fill="white"/>
<path d="M988.651 735.009C990.295 733.533 992.824 733.669 994.299 735.313C995.775 736.957 995.639 739.486 993.995 740.962C992.351 742.437 989.822 742.301 988.346 740.657C986.871 739.013 987.007 736.484 988.651 735.009Z" fill="white"/>
<path d="M500.775 806.801C499.852 805.774 499.938 804.193 500.965 803.271C501.992 802.349 503.573 802.434 504.495 803.461C505.418 804.489 505.333 806.069 504.305 806.992C503.278 807.914 501.697 807.829 500.775 806.801Z" fill="white"/>
<path d="M300.989 1097.7C300.066 1096.68 300.151 1095.09 301.179 1094.17C302.206 1093.25 303.787 1093.33 304.709 1094.36C305.632 1095.39 305.546 1096.97 304.519 1097.89C303.492 1098.82 301.911 1098.73 300.989 1097.7Z" fill="white"/>
<path d="M332.637 930.872C331.714 929.845 331.799 928.264 332.827 927.342C333.854 926.419 335.435 926.504 336.357 927.532C337.28 928.559 337.194 930.14 336.167 931.062C335.14 931.985 333.559 931.899 332.637 930.872Z" fill="white"/>
<path d="M522.028 990.644C521.106 989.617 521.191 988.036 522.219 987.114C523.246 986.192 524.827 986.277 525.749 987.304C526.671 988.332 526.586 989.912 525.559 990.835C524.531 991.757 522.951 991.672 522.028 990.644Z" fill="white"/>
<path d="M359.512 806.626C358.036 804.983 358.172 802.454 359.816 800.978C361.46 799.502 363.989 799.638 365.465 801.282C366.941 802.926 366.804 805.455 365.16 806.931C363.517 808.407 360.988 808.27 359.512 806.626Z" fill="white"/>
<path d="M1498.44 611.286C1497.52 610.259 1497.61 608.678 1498.63 607.756C1499.66 606.834 1501.24 606.919 1502.16 607.946C1503.09 608.974 1503 610.554 1501.97 611.477C1500.95 612.399 1499.37 612.314 1498.44 611.286Z" fill="white"/>
<path d="M1298.66 902.188C1297.74 901.16 1297.82 899.58 1298.85 898.657C1299.88 897.735 1301.46 897.82 1302.38 898.847C1303.3 899.875 1303.22 901.455 1302.19 902.378C1301.16 903.3 1299.58 903.215 1298.66 902.188Z" fill="white"/>
<path d="M1330.31 735.357C1329.38 734.33 1329.47 732.749 1330.5 731.827C1331.52 730.904 1333.1 730.99 1334.03 732.017C1334.95 733.044 1334.86 734.625 1333.84 735.547C1332.81 736.47 1331.23 736.385 1330.31 735.357Z" fill="white"/>
<path d="M1519.7 795.13C1518.78 794.102 1518.86 792.521 1519.89 791.599C1520.92 790.677 1522.5 790.762 1523.42 791.789C1524.34 792.817 1524.26 794.397 1523.23 795.32C1522.2 796.242 1520.62 796.157 1519.7 795.13Z" fill="white"/>
<path d="M1357.18 611.112C1355.71 609.468 1355.84 606.939 1357.49 605.463C1359.13 603.987 1361.66 604.123 1363.13 605.767C1364.61 607.411 1364.47 609.94 1362.83 611.416C1361.19 612.892 1358.66 612.755 1357.18 611.112Z" fill="white"/>
<path d="M790.609 277.154C789.582 278.076 788.001 277.991 787.079 276.964C786.157 275.936 786.242 274.356 787.269 273.433C788.297 272.511 789.877 272.596 790.8 273.624C791.722 274.651 791.637 276.232 790.609 277.154Z" fill="white"/>
<path d="M1081.51 476.94C1080.48 477.862 1078.9 477.777 1077.98 476.75C1077.06 475.722 1077.14 474.142 1078.17 473.219C1079.2 472.297 1080.78 472.382 1081.7 473.41C1082.62 474.437 1082.54 476.018 1081.51 476.94Z" fill="white"/>
<path d="M914.68 445.292C913.653 446.215 912.072 446.129 911.15 445.102C910.227 444.075 910.312 442.494 911.34 441.572C912.367 440.649 913.948 440.734 914.87 441.762C915.793 442.789 915.707 444.37 914.68 445.292Z" fill="white"/>
<path d="M974.452 255.9C973.425 256.823 971.844 256.738 970.922 255.71C970 254.683 970.085 253.102 971.112 252.18C972.14 251.257 973.72 251.343 974.643 252.37C975.565 253.397 975.48 254.978 974.452 255.9Z" fill="white"/>
<path d="M790.434 418.417C788.791 419.893 786.262 419.756 784.786 418.113C783.31 416.469 783.446 413.94 785.09 412.464C786.734 410.988 789.263 411.124 790.739 412.768C792.215 414.412 792.078 416.941 790.434 418.417Z" fill="white"/>
<path d="M1324.83 1047.35C1323.8 1048.27 1322.22 1048.19 1321.3 1047.16C1320.38 1046.13 1320.46 1044.55 1321.49 1043.63C1322.52 1042.71 1324.1 1042.79 1325.02 1043.82C1325.94 1044.85 1325.86 1046.43 1324.83 1047.35Z" fill="white"/>
<path d="M1615.73 1247.13C1614.7 1248.06 1613.12 1247.97 1612.2 1246.94C1611.28 1245.92 1611.36 1244.34 1612.39 1243.41C1613.42 1242.49 1615 1242.58 1615.92 1243.6C1616.84 1244.63 1616.76 1246.21 1615.73 1247.13Z" fill="white"/>
<path d="M1448.9 1215.49C1447.87 1216.41 1446.29 1216.32 1445.37 1215.3C1444.45 1214.27 1444.53 1212.69 1445.56 1211.77C1446.59 1210.84 1448.17 1210.93 1449.09 1211.96C1450.01 1212.98 1449.93 1214.56 1448.9 1215.49Z" fill="white"/>
<path d="M1508.67 1026.09C1507.64 1027.02 1506.06 1026.93 1505.14 1025.9C1504.22 1024.88 1504.3 1023.3 1505.33 1022.37C1506.36 1021.45 1507.94 1021.54 1508.86 1022.56C1509.78 1023.59 1509.7 1025.17 1508.67 1026.09Z" fill="white"/>
<path d="M1324.65 1188.61C1323.01 1190.09 1320.48 1189.95 1319 1188.31C1317.53 1186.66 1317.66 1184.13 1319.31 1182.66C1320.95 1181.18 1323.48 1181.32 1324.96 1182.96C1326.43 1184.61 1326.3 1187.14 1324.65 1188.61Z" fill="white"/>
<path d="M1152.94 1201.67C1151.91 1202.59 1150.33 1202.5 1149.41 1201.48C1148.48 1200.45 1148.57 1198.87 1149.6 1197.95C1150.62 1197.02 1152.2 1197.11 1153.13 1198.14C1154.05 1199.16 1153.96 1200.74 1152.94 1201.67Z" fill="white"/>
<path d="M1443.84 1401.45C1442.81 1402.38 1441.23 1402.29 1440.31 1401.26C1439.38 1400.23 1439.47 1398.65 1440.5 1397.73C1441.52 1396.81 1443.1 1396.89 1444.03 1397.92C1444.95 1398.95 1444.86 1400.53 1443.84 1401.45Z" fill="white"/>
<path d="M1277.01 1369.8C1275.98 1370.73 1274.4 1370.64 1273.48 1369.61C1272.55 1368.59 1272.64 1367.01 1273.67 1366.08C1274.69 1365.16 1276.27 1365.25 1277.2 1366.27C1278.12 1367.3 1278.03 1368.88 1277.01 1369.8Z" fill="white"/>
<path d="M1336.78 1180.41C1335.75 1181.34 1334.17 1181.25 1333.25 1180.22C1332.33 1179.2 1332.41 1177.61 1333.44 1176.69C1334.47 1175.77 1336.05 1175.85 1336.97 1176.88C1337.89 1177.91 1337.81 1179.49 1336.78 1180.41Z" fill="white"/>
<path d="M1152.76 1342.93C1151.12 1344.41 1148.59 1344.27 1147.11 1342.63C1145.64 1340.98 1145.77 1338.45 1147.42 1336.98C1149.06 1335.5 1151.59 1335.64 1153.07 1337.28C1154.54 1338.92 1154.4 1341.45 1152.76 1342.93Z" fill="white"/>
<path d="M937.367 852.274C936.34 853.196 934.759 853.111 933.837 852.084C932.914 851.057 932.999 849.476 934.027 848.554C935.054 847.631 936.635 847.716 937.557 848.744C938.48 849.771 938.394 851.352 937.367 852.274Z" fill="white"/>
<path d="M1228.27 1052.06C1227.24 1052.98 1225.66 1052.9 1224.74 1051.87C1223.82 1050.84 1223.9 1049.26 1224.93 1048.34C1225.96 1047.42 1227.54 1047.5 1228.46 1048.53C1229.38 1049.56 1229.3 1051.14 1228.27 1052.06Z" fill="white"/>
<path d="M1061.44 1020.41C1060.41 1021.33 1058.83 1021.25 1057.91 1020.22C1056.98 1019.19 1057.07 1017.61 1058.1 1016.69C1059.12 1015.77 1060.71 1015.85 1061.63 1016.88C1062.55 1017.91 1062.47 1019.49 1061.44 1020.41Z" fill="white"/>
<path d="M1121.21 831.021C1120.18 831.943 1118.6 831.858 1117.68 830.83C1116.76 829.803 1116.84 828.222 1117.87 827.3C1118.9 826.378 1120.48 826.463 1121.4 827.49C1122.32 828.518 1122.24 830.098 1121.21 831.021Z" fill="white"/>
<path d="M937.192 993.537C935.548 995.013 933.019 994.877 931.543 993.233C930.068 991.589 930.204 989.06 931.848 987.584C933.492 986.108 936.021 986.244 937.496 987.888C938.972 989.532 938.836 992.061 937.192 993.537Z" fill="white"/>
<path d="M678.232 1140.69C679.154 1141.71 679.069 1143.29 678.042 1144.22C677.014 1145.14 675.434 1145.05 674.511 1144.03C673.589 1143 673.674 1141.42 674.701 1140.5C675.729 1139.57 677.309 1139.66 678.232 1140.69Z" fill="white"/>
<path d="M878.018 849.785C878.94 850.812 878.855 852.393 877.828 853.315C876.8 854.238 875.22 854.153 874.297 853.125C873.375 852.098 873.46 850.517 874.488 849.595C875.515 848.672 877.096 848.758 878.018 849.785Z" fill="white"/>
<path d="M846.37 1016.62C847.292 1017.64 847.207 1019.22 846.18 1020.15C845.152 1021.07 843.572 1020.98 842.649 1019.96C841.727 1018.93 841.812 1017.35 842.84 1016.43C843.867 1015.5 845.448 1015.59 846.37 1016.62Z" fill="white"/>
<path d="M656.978 956.843C657.901 957.87 657.815 959.451 656.788 960.373C655.761 961.296 654.18 961.211 653.258 960.183C652.335 959.156 652.42 957.575 653.448 956.653C654.475 955.73 656.056 955.816 656.978 956.843Z" fill="white"/>
<path d="M819.495 1140.86C820.971 1142.5 820.834 1145.03 819.19 1146.51C817.547 1147.99 815.018 1147.85 813.542 1146.21C812.066 1144.56 812.202 1142.03 813.846 1140.56C815.49 1139.08 818.019 1139.22 819.495 1140.86Z" fill="white"/>
<path d="M486.139 1341.36C487.061 1342.39 486.976 1343.97 485.949 1344.89C484.921 1345.81 483.341 1345.73 482.418 1344.7C481.496 1343.67 481.581 1342.09 482.609 1341.17C483.636 1340.25 485.217 1340.33 486.139 1341.36Z" fill="white"/>
<path d="M685.925 1050.46C686.847 1051.49 686.762 1053.07 685.735 1053.99C684.707 1054.91 683.127 1054.83 682.204 1053.8C681.282 1052.77 681.367 1051.19 682.395 1050.27C683.422 1049.35 685.003 1049.43 685.925 1050.46Z" fill="white"/>
<path d="M654.277 1217.29C655.2 1218.32 655.114 1219.9 654.087 1220.82C653.06 1221.74 651.479 1221.66 650.557 1220.63C649.634 1219.6 649.719 1218.02 650.747 1217.1C651.774 1216.18 653.355 1216.26 654.277 1217.29Z" fill="white"/>
<path d="M464.885 1157.52C465.808 1158.55 465.723 1160.13 464.695 1161.05C463.668 1161.97 462.087 1161.89 461.165 1160.86C460.242 1159.83 460.328 1158.25 461.355 1157.33C462.382 1156.41 463.963 1156.49 464.885 1157.52Z" fill="white"/>
<path d="M627.402 1341.54C628.878 1343.18 628.741 1345.71 627.098 1347.18C625.454 1348.66 622.925 1348.52 621.449 1346.88C619.973 1345.24 620.109 1342.71 621.753 1341.23C623.397 1339.76 625.926 1339.89 627.402 1341.54Z" fill="white"/>
<path d="M664.248 848.182C665.171 849.21 665.086 850.79 664.058 851.713C663.031 852.635 661.45 852.55 660.528 851.522C659.605 850.495 659.69 848.914 660.718 847.992C661.745 847.07 663.326 847.155 664.248 848.182Z" fill="white"/>
<path d="M864.034 557.281C864.957 558.308 864.872 559.889 863.844 560.811C862.817 561.734 861.236 561.649 860.314 560.621C859.391 559.594 859.477 558.013 860.504 557.091C861.531 556.168 863.112 556.254 864.034 557.281Z" fill="white"/>
<path d="M832.387 724.112C833.309 725.139 833.224 726.72 832.196 727.642C831.169 728.564 829.588 728.479 828.666 727.452C827.744 726.424 827.829 724.844 828.856 723.921C829.884 722.999 831.464 723.084 832.387 724.112Z" fill="white"/>
<path d="M642.995 664.339C643.917 665.367 643.832 666.947 642.805 667.87C641.777 668.792 640.196 668.707 639.274 667.679C638.352 666.652 638.437 665.071 639.464 664.149C640.492 663.227 642.072 663.312 642.995 664.339Z" fill="white"/>
<path d="M805.511 848.357C806.987 850.001 806.851 852.53 805.207 854.006C803.563 855.482 801.034 855.345 799.558 853.701C798.082 852.058 798.219 849.529 799.863 848.053C801.506 846.577 804.035 846.713 805.511 848.357Z" fill="white"/>
<path d="M970.322 740.04C971.245 741.068 971.16 742.648 970.132 743.571C969.105 744.493 967.524 744.408 966.602 743.38C965.679 742.353 965.765 740.772 966.792 739.85C967.819 738.928 969.4 739.013 970.322 740.04Z" fill="white"/>
<path d="M1170.11 449.139C1171.03 450.166 1170.95 451.747 1169.92 452.669C1168.89 453.592 1167.31 453.507 1166.39 452.479C1165.47 451.452 1165.55 449.871 1166.58 448.949C1167.61 448.026 1169.19 448.112 1170.11 449.139Z" fill="white"/>
<path d="M1138.46 615.969C1139.38 616.997 1139.3 618.578 1138.27 619.5C1137.24 620.422 1135.66 620.337 1134.74 619.31C1133.82 618.282 1133.9 616.702 1134.93 615.779C1135.96 614.857 1137.54 614.942 1138.46 615.969Z" fill="white"/>
<path d="M949.069 556.197C949.991 557.224 949.906 558.805 948.879 559.727C947.851 560.65 946.271 560.565 945.348 559.537C944.426 558.51 944.511 556.929 945.538 556.007C946.566 555.084 948.146 555.17 949.069 556.197Z" fill="white"/>
<path d="M1111.59 740.215C1113.06 741.859 1112.92 744.388 1111.28 745.864C1109.64 747.34 1107.11 747.203 1105.63 745.559C1104.16 743.916 1104.29 741.387 1105.94 739.911C1107.58 738.435 1110.11 738.571 1111.59 740.215Z" fill="white"/>
<path d="M422.773 651.059C423.695 652.086 423.61 653.667 422.583 654.589C421.555 655.512 419.975 655.427 419.052 654.399C418.13 653.372 418.215 651.791 419.243 650.869C420.27 649.946 421.851 650.032 422.773 651.059Z" fill="white"/>
<path d="M622.559 360.158C623.481 361.185 623.396 362.766 622.369 363.688C621.341 364.611 619.761 364.525 618.839 363.498C617.916 362.471 618.001 360.89 619.029 359.968C620.056 359.045 621.637 359.13 622.559 360.158Z" fill="white"/>
<path d="M590.911 526.988C591.834 528.016 591.748 529.596 590.721 530.519C589.694 531.441 588.113 531.356 587.191 530.328C586.268 529.301 586.353 527.72 587.381 526.798C588.408 525.876 589.989 525.961 590.911 526.988Z" fill="white"/>
<path d="M401.519 467.216C402.442 468.243 402.357 469.824 401.329 470.746C400.302 471.669 398.721 471.583 397.799 470.556C396.876 469.529 396.962 467.948 397.989 467.026C399.016 466.103 400.597 466.188 401.519 467.216Z" fill="white"/>
<path d="M564.036 651.234C565.512 652.878 565.375 655.407 563.732 656.883C562.088 658.358 559.559 658.222 558.083 656.578C556.607 654.934 556.743 652.405 558.387 650.93C560.031 649.454 562.56 649.59 564.036 651.234Z" fill="white"/>
</svg>
